# xmcd
#
# Track frame offsets:
#	150
#	10168
#	20318
#	36159
#	47501
#	58540
#	69813
#	80829
#	91221
#	101930
#	111062
#	121030
#	132317
#	140850
#	151158
#	160485
#	172243
#	184517
#	199313
#	212079
#	219232
#	230448
#	239529
#	249225
#	257370
#
# Disc length: 3593 seconds
#
# Revision: 1
# Processed by: cddbd v1.5.2PL0 Copyright (c) Steve Scherf et al.
# Submitted via: audiograbber 1.83.01
#
DISCID=560e0719
DTITLE=Various Artist - Guess Who? - The Zirkon Records Story  [CD2)
DYEAR=2015
DGENRE=Oldies
TTITLE0=Little Anthony and The Imperials - Tears On My Pillow 
TTITLE1=Ral Donner - Girl Of My Best Friend 
TTITLE2=Rosie and The Originals - Angel Baby 
TTITLE3=Echoes   - Baby Blue 
TTITLE4=Lee Dorsey - Ya Ya 
TTITLE5=Shells   - Baby Oh Baby 
TTITLE6=New Yorkers   - Miss Fine 
TTITLE7=Johnnie Maestro - Mr. Happiness 
TTITLE8=Maxine Brown - Funny 
TTITLE9=Gladys Knight and The Pips - Every Beat Of My Heart 
TTITLE10=Chimes   - Summer Night 
TTITLE11=Buster Brown - Is You Is Or Is You Ain't My Baby 
TTITLE12=Texans   - Bloody River 
TTITLE13=Butanes  - That's My Desire 
TTITLE14=Alan Riddle - The Moon Is Crying 
TTITLE15=Dreamers   - Teenage Vows Of Love 
TTITLE16=Flamingos   - Your Other Love 
TTITLE17=Adam Wade - Sleepy Time Gal 
TTITLE18=Gladys Knight and The Pips - Letter Full Of Tears 
TTITLE19=Royaltones   - Dixie Rock 
TTITLE20=Ray Smith - Turn On The Moonlight 
TTITLE21=Pepper Pots   - Leather Jacket Cowboy 
TTITLE22=Mary Ann Fisher - I Can't Take It 
TTITLE23=Barry and The Deans - Rock With Me Baby 
TTITLE24=Slim Harpo - Rainin' In My Heart 
EXTD=
EXTT0=
EXTT1=
EXTT2=
EXTT3=
EXTT4=
EXTT5=
EXTT6=
EXTT7=
EXTT8=
EXTT9=
EXTT10=
EXTT11=
EXTT12=
EXTT13=
EXTT14=
EXTT15=
EXTT16=
EXTT17=
EXTT18=
EXTT19=
EXTT20=
EXTT21=
EXTT22=
EXTT23=
EXTT24=
PLAYORDER=
